<svg width="189" height="38" viewBox="0 0 189 38" fill="none" xmlns="http://www.w3.org/2000/svg">
<path d="M30.8853 36.9339C37.4188 25.2485 25.5102 20.7107 31.812 13.7512C31.0475 17.278 36.0287 17.3485 35.658 22.3565C36.8627 22.9678 37.9053 22.0979 38.5077 20.8048C38.6467 15.7262 38.554 12.0113 38.137 10.5771L41.4501 8.79022C34.8471 2.58309 25.0932 1.03131 18.5597 14.0804C26.0431 21.7687 29.5647 26.6827 30.8853 36.9339Z" fill="#333333"/>
<path d="M164.316 22.8285C161.593 22.7047 159.985 20.7869 159.676 18.9309H164.316V10.2697L170.007 10.2079V18.8691H176.194V22.8285H170.007V29.51C170.007 30.871 170.193 31.799 170.626 32.2939C170.997 32.727 171.739 32.9745 172.791 32.9745C173.286 32.9745 173.843 32.9126 174.4 32.727C174.956 32.6033 175.575 32.3558 176.256 32.0465C176.07 33.7787 174.771 36.3152 171.368 37.1195C169.141 37.6763 166.852 36.6864 165.862 35.511C164.872 34.3355 164.377 32.2939 164.377 29.3863V22.8285H164.316Z" fill="#333333"/>
<path d="M142.848 37.1813V19.1165H148.602V23.9421C149.591 22.148 150.519 20.7869 151.386 20.0445C154.046 17.7555 157.634 18.7453 159.057 21.4056C159.985 23.2615 159.923 25.9836 158.438 27.8396C156.026 22.6429 149.901 24.437 148.602 30.3142V37.2432H142.848V37.1813ZM126.887 26.3548H133.939C133.816 25.1794 133.506 24.2514 132.888 23.6327C132.269 22.9522 131.465 22.6429 130.537 22.6429C129.547 22.6429 128.743 22.9522 128.062 23.6327C127.444 24.2514 127.01 25.1794 126.887 26.3548ZM131.155 37.5525C128 37.5525 125.402 36.6864 123.608 35.016C121.814 33.3457 120.948 30.9329 120.948 27.9633C120.948 25.1794 121.814 22.9522 123.546 21.2818C125.278 19.6115 127.629 18.7453 130.475 18.7453C133.321 18.7453 135.548 19.6733 137.218 21.4674C138.889 23.2615 139.693 25.798 139.693 28.9532V29.1388H126.825V29.2007C126.825 30.6236 127.32 31.7372 128.31 32.6033C129.3 33.4075 130.661 33.8406 132.331 33.8406C133.506 33.8406 134.62 33.655 135.795 33.2219C136.971 32.7889 138.084 32.2321 139.26 31.4278C139.693 32.3558 138.827 34.8304 137.218 36.0059C135.919 36.9339 133.63 37.4907 131.155 37.5525ZM99.3565 36.1296V10.4553H105.048V20.3538C105.791 19.7971 106.533 19.364 107.399 19.0547C108.265 18.7453 109.193 18.6216 110.183 18.6216C112.843 18.6216 114.885 19.4877 116.431 21.1581C117.978 22.8285 118.72 25.1794 118.72 28.0871C118.72 31.0566 117.731 33.3457 115.813 34.9542C113.895 36.6246 111.235 37.4288 107.832 37.4288C106.533 37.4288 105.234 37.3051 103.811 37.0576C102.45 36.9339 100.965 36.6246 99.3565 36.1296ZM105.048 31.9846C105.543 32.3558 106.038 32.6651 106.533 32.8507C107.028 33.0363 107.585 33.1601 108.141 33.1601C109.564 33.1601 110.616 32.727 111.482 31.799C112.286 30.9329 112.719 29.6956 112.719 28.1489C112.719 26.6023 112.286 25.365 111.482 24.4989C110.678 23.6327 109.564 23.1378 108.141 23.1378C107.585 23.1378 107.09 23.2615 106.533 23.4471C105.976 23.6327 105.481 23.9421 104.986 24.3751V31.9846H105.048ZM88.9011 35.511C88.035 36.1915 87.1689 36.6864 86.2409 37.0576C85.3129 37.3669 84.3231 37.5525 83.2714 37.5525C81.5391 37.5525 80.1781 37.1195 79.3119 36.2534C78.384 35.3872 77.9509 34.1499 77.9509 32.4795C77.9509 31.0566 78.6314 29.8193 79.9306 28.8913C81.2298 27.9633 84.1375 26.8498 88.6537 25.5506C88.6537 25.4887 88.6537 25.4268 88.6537 25.365C88.6537 25.3031 88.6537 25.1794 88.6537 25.0557C88.6537 24.1895 88.3444 23.5709 87.7876 23.1378C87.2308 22.7048 86.3028 22.5192 85.0655 22.5192C84.0137 22.5192 83.0239 22.7666 81.9103 23.2615C80.8586 23.7565 79.8069 24.4989 78.7552 25.4268C78.3221 23.9421 79.0026 22.0861 79.9925 21.0344C83.2714 17.5699 90.0766 18.0648 92.6131 20.2301C93.7885 21.22 94.4072 22.8285 94.4072 25.0557V32.2939C94.4072 32.727 94.4691 32.9745 94.5928 33.1601C94.7165 33.3457 94.9021 33.4075 95.1496 33.4075C95.3971 33.4075 95.6445 33.3457 95.892 33.2838C96.1394 33.2219 96.5106 33.0982 96.9437 32.9126C96.0776 38.6043 89.3342 38.7899 88.9011 35.511ZM88.6537 32.8507V28.3964C86.674 29.0769 85.3748 29.6956 84.7561 30.1905C84.0756 30.6854 83.7663 31.3041 83.7663 32.0465C83.7663 32.6033 83.9519 33.0982 84.3231 33.4694C84.6943 33.8406 85.1892 33.9643 85.8079 33.9643C86.2409 33.9643 86.674 33.8406 87.1689 33.655C87.602 33.4694 88.0969 33.2219 88.6537 32.8507ZM51.3486 37.1813V10.5172H58.092V21.22H67.6812V10.5172H74.4246V37.1813H67.6812V26.3548H58.092V37.1813H51.3486Z" fill="#333333"/>
<path d="M0 4.145C0.0232542 6.72564 0.581354 12.0981 2.93003 16.7667C5.37171 17.6582 23.417 22.2564 29.6956 37.5525C29.0212 24.7432 13.5339 8.95437 0 4.145Z" fill="#F5A416"/>
<path d="M4.33061 18.3741C4.35424 20.2512 6.00872 25.6713 7.5923 26.8445C7.85229 27.0322 20.7809 27.6892 29.0769 36.9339C23.499 26.9149 13.8793 21.1663 4.33061 18.3741Z" fill="#F5A416"/>
<path d="M27.2209 35.6966C21.9982 31.1532 13.4434 28.7879 9.89853 28.2727C9.96942 29.7247 11.2456 32.4179 12.2854 33.4015C12.2854 33.4015 20.6985 33.1673 27.2209 35.6966Z" fill="#F5A416"/>
<path d="M182.628 1.23732C185.412 1.23732 187.391 3.46448 187.391 6.24844C187.391 8.97053 185.412 11.1977 182.69 11.1977C179.906 11.1977 177.864 9.0324 177.864 6.24844C177.802 3.46448 179.844 1.23732 182.628 1.23732ZM182.628 0C179.101 0 176.256 2.78396 176.256 6.18658C176.256 9.71293 179.101 12.435 182.628 12.435C186.216 12.435 189 9.65106 189 6.18658C188.938 2.7221 186.216 0 182.628 0ZM181.638 4.14501C181.762 4.08314 182.071 4.08314 182.442 4.08314C183.37 4.08314 183.741 4.45433 183.741 5.01112C183.741 5.62978 183.123 5.93911 182.318 5.93911H181.638V4.14501ZM181.638 6.92897H182.318C183.123 6.92897 183.494 7.2383 183.618 7.91882C183.803 8.66121 183.927 9.218 184.113 9.4036H185.659C185.536 9.15614 185.412 8.78494 185.226 7.85695C185.041 7.0527 184.669 6.55778 184.113 6.37218V6.31031C184.855 6.06285 185.412 5.56792 185.412 4.88739C185.412 4.26874 185.164 3.77381 184.793 3.52635C184.36 3.27889 183.803 3.09329 182.628 3.09329C181.576 3.09329 180.834 3.15516 180.277 3.27889V9.46547H181.7V6.92897H181.638Z" fill="#333333"/>
</svg>
